PathFileType	4	(x/y/z)	S10_PSF_T09
DataRate	CameraRate	NumFrames	NumMarkers	Units	OrigDataRate	OrigDataStartFrame	OrigNumFrames
240	240	10	51	mm	240	1	427
Frame#	Time	Sternum			R.Acromium			L.Acromium			Top.Head			R.ASIS			L.ASIS			R.PSIS			L.PSIS			R.Great.Tro			L.Great.Tro			R.Iliac.Crest			L.Iliac.Crest			V.Sacral			R.Thigh.Upper.Post			R.Thigh.Lower.Ant			R.Thigh.Lower.Post			R.Thigh.Upper.Ant			R.Knee.Lat			R.Knee.Med			R.Shank.Upper.Post			R.Shank.Lower.Ant			R.Shank.Lower.Post			R.Shank.Upper.Ant			R.Ankle.Lat			R.Ankle.Med			R.Heel.Upper			R.Heel.Med			R.Heel.Lat			R.Toe.Lat			R.Toe.Med			R.Toe.Tip			L.Thigh.Upper.Post			L.Thigh.Lower.Ant			L.Thigh.Lower.Post			L.Thigh.Upper.Ant			L.Knee.Lat			L.Knee.Med			L.Shank.Upper.Post			L.Shank.Lower.Ant			L.Shank.Lower.Post			L.Shank.Upper.Ant			L.Ankle.Lat			L.Ankle.Med			L.Heel.Upper			L.Heel.Med			L.Heel.Lat			L.Toe.Lat			L.Toe.Med			L.Toe.Tip			Cervical.Spine			Back			
		X1	Y1	Z1	X2	Y2	Z2	X3	Y3	Z3	X4	Y4	Z4	X5	Y5	Z5	X6	Y6	Z6	X7	Y7	Z7	X8	Y8	Z8	X9	Y9	Z9	X10	Y10	Z10	X11	Y11	Z11	X12	Y12	Z12	X13	Y13	Z13	X14	Y14	Z14	X15	Y15	Z15	X16	Y16	Z16	X17	Y17	Z17	X18	Y18	Z18	X19	Y19	Z19	X20	Y20	Z20	X21	Y21	Z21	X22	Y22	Z22	X23	Y23	Z23	X24	Y24	Z24	X25	Y25	Z25	X26	Y26	Z26	X27	Y27	Z27	X28	Y28	Z28	X29	Y29	Z29	X30	Y30	Z30	X31	Y31	Z31	X32	Y32	Z32	X33	Y33	Z33	X34	Y34	Z34	X35	Y35	Z35	X36	Y36	Z36	X37	Y37	Z37	X38	Y38	Z38	X39	Y39	Z39	X40	Y40	Z40	X41	Y41	Z41	X42	Y42	Z42	X43	Y43	Z43	X44	Y44	Z44	X45	Y45	Z45	X46	Y46	Z46	X47	Y47	Z47	X48	Y48	Z48	X49	Y49	Z49	X50	Y50	Z50	X51	Y51	Z51	

1	0	NaN	NaN	NaN	-1550.2	1395.1	440.44	-1595.9	1411.7	138.08	-1613.4	1711	309.13	NaN	NaN	NaN	NaN	NaN	NaN	-1696.7	988.25	317.63	-1690.8	996.77	236.65	-1579.1	888.71	480.47	-1544.3	933.09	116.11	-1592.7	1046.1	453.34	NaN	NaN	NaN	-1712.4	957.25	279.05	NaN	NaN	NaN	NaN	NaN	NaN	NaN	NaN	NaN	NaN	NaN	NaN	-1734.6	496.38	408.7	-1722	503.09	278.53	NaN	NaN	NaN	-1878.5	261.35	379.43	NaN	NaN	NaN	-1840	318.21	389.93	-1999.3	184.64	369.16	-1986.7	190.79	291.39	-2081.2	174.18	319.73	-2085.2	146.82	291.28	-2092.5	150	352.29	-1953.9	53.841	401.54	-1915.4	50.477	295.1	NaN	NaN	NaN	-1483	657.69	124.86	-1384.9	609.3	155.42	-1450.5	569.8	148.44	NaN	NaN	NaN	-1384.6	506.62	162.18	NaN	NaN	NaN	-1375.8	284.68	160.23	-1284.8	223.05	179.43	-1350.6	211.18	170.87	NaN	NaN	NaN	-1291.7	105.78	182.24	-1278.6	116.91	272.59	-1344.8	72.106	231.48	-1332.5	42.703	263.94	-1336.9	44.264	199.92	-1162.7	53.249	163.85	NaN	NaN	NaN	-1086.8	91.378	222.85	-1650.9	1458.9	310.55	-1729.4	1248.6	310.17
2	0.0041667	NaN	NaN	NaN	-1545	1395.1	439.96	-1590.4	1411.4	137.59	-1608.6	1710.9	308.76	NaN	NaN	NaN	NaN	NaN	NaN	-1691	988.05	317.3	-1685.2	996.93	236.34	-1573.2	888.21	479.98	-1538.2	933.89	115.76	-1587.1	1046	453.01	NaN	NaN	NaN	-1706.6	957.12	278.63	NaN	NaN	NaN	NaN	NaN	NaN	NaN	NaN	NaN	NaN	NaN	NaN	-1726.2	494.98	408.76	-1713.5	501.37	278.67	NaN	NaN	NaN	-1874.1	261.96	379.62	NaN	NaN	NaN	-1834	318.14	390.18	-1994.6	186.91	369.29	-1981.9	192.64	291.59	-2075.7	178.33	319.48	-2080.6	151.27	291.02	-2087.9	154.66	352.03	-1952.9	54.697	401.48	-1915	50.164	295.48	NaN	NaN	NaN	-1476.4	658.51	124.51	-1378.5	610.23	155.68	-1443.9	570.68	148.25	NaN	NaN	NaN	-1377.9	507.44	162.69	NaN	NaN	NaN	-1371.7	285.42	160.06	-1281.9	222.63	180.05	-1347.4	211.69	170.71	NaN	NaN	NaN	-1290.3	105.75	182.44	-1277.4	116.64	272.82	-1344.1	72.472	231.78	-1332.1	42.94	263.97	-1336.6	44.596	199.99	-1162.1	52.235	163.86	NaN	NaN	NaN	-1085.8	88.856	222.87	-1645.7	1458.8	310	-1723.9	1248.4	309.73
3	0.0083333	NaN	NaN	NaN	-1539.6	1395.1	439.47	-1584.7	1411.2	137.09	-1603.7	1710.8	308.37	NaN	NaN	NaN	NaN	NaN	NaN	-1685	987.86	316.97	-1679.3	997.11	236.03	-1567.1	887.7	479.47	-1531.8	934.74	115.39	-1581.2	1045.8	452.65	NaN	NaN	NaN	-1700.7	957	278.19	NaN	NaN	NaN	NaN	NaN	NaN	NaN	NaN	NaN	NaN	NaN	NaN	-1717.4	493.52	408.85	-1704.5	499.54	278.86	NaN	NaN	NaN	-1869.4	262.63	379.86	NaN	NaN	NaN	-1827.8	318.09	390.47	-1989.7	189.3	369.45	-1976.7	194.59	291.8	-2069.9	182.69	319.25	-2075.7	155.96	290.78	-2082.9	159.57	351.79	-1951.7	55.664	401.42	NaN	NaN	NaN	NaN	NaN	NaN	-1469.5	659.35	124.14	-1371.8	611.19	155.96	-1437	571.6	148.06	NaN	NaN	NaN	-1370.9	508.27	163.23	NaN	NaN	NaN	-1367.5	286.19	159.89	-1278.9	222.21	180.69	-1344.2	212.22	170.56	NaN	NaN	NaN	-1288.8	105.74	182.65	-1276.1	116.37	273.06	-1343.3	72.845	232.13	-1331.8	43.174	264.01	-1336.2	44.928	200.07	-1161.5	51.238	163.87	NaN	NaN	NaN	-1084.8	86.319	222.91	-1640.3	1458.7	309.44	-1718.2	1248.2	309.27
4	0.0125	NaN	NaN	NaN	-1534.1	1395.1	438.97	-1578.8	1411	136.58	-1598.6	1710.7	307.97	NaN	NaN	NaN	NaN	NaN	NaN	-1678.9	987.68	316.61	-1673.3	997.31	235.7	-1560.7	887.17	478.94	-1525.4	935.62	115	-1575.2	1045.6	452.29	-1556.3	1065.5	149.2	-1694.5	956.9	277.73	NaN	NaN	NaN	NaN	NaN	NaN	NaN	NaN	NaN	NaN	NaN	NaN	-1708.3	492.01	409	-1695.1	497.59	279.09	NaN	NaN	NaN	-1864.4	263.37	380.16	NaN	NaN	NaN	-1821.2	318.07	390.82	-1984.6	191.8	369.62	-1971.2	196.62	292.02	-2063.8	187.26	319.04	-2070.5	160.89	290.55	-2077.6	164.71	351.55	-1950.4	56.753	401.37	NaN	NaN	NaN	NaN	NaN	NaN	-1462.4	660.21	123.75	-1364.9	612.19	156.25	-1429.9	572.53	147.88	NaN	NaN	NaN	-1363.8	509.11	163.77	NaN	NaN	NaN	-1363.2	286.97	159.73	-1275.8	221.81	181.36	-1340.8	212.76	170.42	NaN	NaN	NaN	-1287.4	105.73	182.87	-1274.9	116.1	273.31	-1342.4	73.22	232.51	-1331.4	43.4	264.05	-1335.9	45.256	200.15	-1160.9	50.277	163.89	NaN	NaN	NaN	-1083.8	83.805	222.94	-1634.7	1458.7	308.87	-1712.3	1248.1	308.81
5	0.016667	NaN	NaN	NaN	-1528.3	1395.1	438.47	-1572.8	1410.8	136.07	-1593.3	1710.6	307.56	NaN	NaN	NaN	NaN	NaN	NaN	-1672.6	987.51	316.25	-1667.1	997.53	235.37	-1554.2	886.64	478.38	-1518.8	936.53	114.61	-1569	1045.4	451.92	-1550.4	1066.1	149.12	-1688.2	956.82	277.26	NaN	NaN	NaN	NaN	NaN	NaN	NaN	NaN	NaN	NaN	NaN	NaN	-1698.9	490.46	409.2	-1685.4	495.53	279.38	NaN	NaN	NaN	-1859.2	264.17	380.53	NaN	NaN	NaN	-1814.3	318.08	391.22	-1979.1	194.39	369.82	-1965.5	198.72	292.25	-2057.3	191.99	318.86	-2064.9	166.01	290.34	-2071.9	170.05	351.33	-1949.1	57.976	401.32	NaN	NaN	NaN	NaN	NaN	NaN	-1455.1	661.09	123.33	-1357.9	613.2	156.56	-1422.7	573.48	147.7	NaN	NaN	NaN	-1356.6	509.95	164.33	NaN	NaN	NaN	-1358.9	287.77	159.58	-1272.7	221.41	182.04	-1337.5	213.32	170.31	NaN	NaN	NaN	-1285.9	105.74	183.09	-1273.7	115.85	273.55	-1341.6	73.591	232.94	-1331.1	43.615	264.09	-1335.5	45.574	200.23	-1160.3	49.369	163.9	NaN	NaN	NaN	-1082.8	81.35	222.98	-1628.9	1458.6	308.3	-1706.3	1248	308.34
6	0.020833	NaN	NaN	NaN	-1522.5	1395.2	437.98	-1566.6	1410.6	135.56	-1588	1710.5	307.14	NaN	NaN	NaN	NaN	NaN	NaN	-1666.3	987.37	315.88	-1660.8	997.77	235.04	-1547.6	886.11	477.8	-1512.1	937.48	114.2	-1562.8	1045.2	451.54	-1544.3	1066.8	149.02	-1681.8	956.76	276.78	NaN	NaN	NaN	NaN	NaN	NaN	NaN	NaN	NaN	NaN	NaN	NaN	-1689.2	488.88	409.46	-1675.3	493.37	279.72	NaN	NaN	NaN	-1853.8	265.06	380.97	NaN	NaN	NaN	-1807.2	318.12	391.67	-1973.5	197.06	370.04	-1959.5	200.89	292.49	-2050.4	196.89	318.72	-2059	171.33	290.15	-2065.9	175.58	351.13	-1947.6	59.342	401.27	NaN	NaN	NaN	NaN	NaN	NaN	-1447.7	661.97	122.89	-1350.7	614.22	156.89	-1415.3	574.43	147.52	NaN	NaN	NaN	-1349.4	510.78	164.9	NaN	NaN	NaN	-1354.6	288.57	159.44	-1269.5	221.03	182.73	-1334.2	213.89	170.2	NaN	NaN	NaN	-1284.6	105.76	183.32	-1272.6	115.6	273.8	-1340.7	73.953	233.41	-1330.8	43.816	264.12	-1335.2	45.879	200.31	-1159.8	48.528	163.92	NaN	NaN	NaN	-1081.8	78.983	223.03	-1623	1458.6	307.72	-1700.2	1247.9	307.86
7	0.025	NaN	NaN	NaN	-1516.6	1395.3	437.49	-1560.3	1410.5	135.07	-1582.5	1710.5	306.71	NaN	NaN	NaN	NaN	NaN	NaN	-1659.8	987.24	315.51	-1654.5	998.03	234.7	-1540.9	885.59	477.2	-1505.4	938.44	113.77	-1556.5	1045.1	451.16	-1538	1067.4	148.91	-1675.4	956.73	276.28	NaN	NaN	NaN	NaN	NaN	NaN	NaN	NaN	NaN	NaN	NaN	NaN	-1679.3	487.27	409.77	-1664.9	491.12	280.13	NaN	NaN	NaN	-1848.2	266.01	381.5	NaN	NaN	NaN	-1799.7	318.2	392.18	-1967.6	199.8	370.3	-1953.2	203.11	292.74	-2043.1	201.91	318.61	-2052.7	176.8	290	-2059.5	181.26	350.96	-1946	60.863	401.23	NaN	NaN	NaN	NaN	NaN	NaN	-1440.2	662.85	122.44	-1343.5	615.24	157.21	-1407.9	575.38	147.35	NaN	NaN	NaN	-1342.1	511.59	165.46	NaN	NaN	NaN	-1350.2	289.38	159.32	-1266.4	220.68	183.42	-1330.9	214.47	170.13	NaN	NaN	NaN	-1283.2	105.79	183.55	-1271.5	115.37	274.03	-1339.8	74.304	233.92	-1330.5	44.001	264.16	-1334.9	46.166	200.38	-1159.3	47.761	163.93	NaN	NaN	NaN	-1080.9	76.726	223.07	-1617.1	1458.6	307.15	-1694	1247.8	307.39
8	0.029167	NaN	NaN	NaN	-1510.7	1395.4	437.02	-1554	1410.4	134.59	-1577	1710.5	306.28	NaN	NaN	NaN	NaN	NaN	NaN	-1653.4	987.15	315.12	-1648.1	998.31	234.36	-1534.1	885.07	476.58	-1498.6	939.43	113.35	-1550.2	1044.9	450.77	-1531.6	1068.1	148.79	-1668.9	956.72	275.78	NaN	NaN	NaN	NaN	NaN	NaN	NaN	NaN	NaN	NaN	NaN	NaN	-1669.2	485.66	410.14	-1654.2	488.78	280.6	NaN	NaN	NaN	-1842.4	267.04	382.1	NaN	NaN	NaN	-1792	318.32	392.73	-1961.4	202.61	370.58	-1946.7	205.38	292.99	-2035.5	207.05	318.56	-2046.1	182.43	289.88	-2052.7	187.07	350.83	-1944.3	62.546	401.19	NaN	NaN	NaN	NaN	NaN	NaN	-1432.7	663.71	121.97	-1336.2	616.25	157.54	-1400.5	576.31	147.19	NaN	NaN	NaN	-1334.9	512.36	166.01	NaN	NaN	NaN	-1346	290.17	159.22	-1263.3	220.34	184.11	-1327.6	215.04	170.07	NaN	NaN	NaN	-1282	105.83	183.77	-1270.4	115.15	274.24	-1339	74.64	234.46	-1330.3	44.168	264.19	-1334.6	46.434	200.45	-1158.8	47.073	163.95	NaN	NaN	NaN	-1080.1	74.599	223.12	-1611.1	1458.7	306.59	-1687.7	1247.8	306.92
9	0.033333	NaN	NaN	NaN	-1504.7	1395.6	436.56	-1547.7	1410.4	134.12	-1571.4	1710.6	305.84	NaN	NaN	NaN	NaN	NaN	NaN	-1646.9	987.08	314.73	-1641.7	998.61	234.01	-1527.3	884.57	475.94	-1491.9	940.42	112.91	-1543.8	1044.8	450.38	-1525.2	1068.9	148.65	-1662.3	956.74	275.27	NaN	NaN	NaN	NaN	NaN	NaN	NaN	NaN	NaN	NaN	NaN	NaN	-1659	484.04	410.57	-1643.3	486.37	281.13	NaN	NaN	NaN	-1836.4	268.14	382.79	NaN	NaN	NaN	-1784	318.5	393.31	-1955.1	205.48	370.91	-1939.9	207.71	293.25	-2027.6	212.28	318.57	-2039.2	188.18	289.81	-2045.5	192.99	350.73	-1942.5	64.399	401.17	NaN	NaN	NaN	NaN	NaN	NaN	-1425.2	664.55	121.49	-1328.9	617.23	157.85	-1393.2	577.22	147.04	NaN	NaN	NaN	-1327.9	513.09	166.54	NaN	NaN	NaN	-1341.8	290.96	159.14	-1260.3	220.01	184.78	-1324.5	215.62	170.04	NaN	NaN	NaN	-1280.8	105.88	184	-1269.5	114.95	274.44	-1338.1	74.956	235.02	-1330.1	44.318	264.21	-1334.3	46.681	200.52	-1158.4	46.463	163.96	NaN	NaN	NaN	-1079.3	72.613	223.17	-1605	1458.8	306.04	-1681.4	1247.8	306.44
10	0.0375	NaN	NaN	NaN	-1498.7	1395.8	436.12	-1541.3	1410.4	133.68	-1565.9	1710.7	305.39	NaN	NaN	NaN	NaN	NaN	NaN	-1640.4	987.05	314.33	-1635.2	998.93	233.66	-1520.5	884.08	475.29	-1485.2	941.41	112.47	-1537.5	1044.6	449.99	-1518.7	1069.6	148.51	-1655.8	956.8	274.75	NaN	NaN	NaN	NaN	NaN	NaN	-1601.1	607.42	446.26	NaN	NaN	NaN	-1648.7	482.42	411.05	-1632.2	483.91	281.71	NaN	NaN	NaN	-1830.2	269.31	383.56	NaN	NaN	NaN	-1775.8	318.74	393.92	-1948.5	208.4	371.27	-1932.9	210.07	293.51	-2019.3	217.58	318.63	-2031.8	194.03	289.79	-2038	198.99	350.68	-1940.5	66.425	401.14	NaN	NaN	NaN	NaN	NaN	NaN	-1417.7	665.36	121	-1321.6	618.18	158.14	-1385.9	578.1	146.9	NaN	NaN	NaN	-1320.9	513.77	167.05	NaN	NaN	NaN	-1337.8	291.72	159.09	-1257.3	219.7	185.42	-1321.4	216.18	170.02	NaN	NaN	NaN	-1279.7	105.94	184.22	-1268.6	114.76	274.61	-1337.3	75.251	235.59	-1330	44.451	264.24	-1334.1	46.906	200.59	-1158	45.931	163.97	NaN	NaN	NaN	-1078.6	70.778	223.21	-1599	1458.9	305.51	-1675.2	1247.8	305.97
